<svg xmlns="http://www.w3.org/2000/svg" viewBox="0 0 169.333 169.333"><path fill="#8bb9d7" d="M0 127h169.333v42.333H0z" opacity=".55"/><path fill="#3872d2" d="M166.627 45.2q1.803 2.002.7 4.406l-54.092 115.9q-1.303 2.504-4.208 2.504-.4 0-1.402-.2-1.703-.5-2.554-1.903-.85-1.403-.45-3.005l19.738-80.94-40.67 10.117q-.4.1-1.202.1-1.804 0-3.106-1.106-1.804-1.503-1.303-3.907L98.21 4.53q.4-1.402 1.6-2.303 1.204-.902 2.806-.902h32.857q1.903 0 3.205 1.252 1.303 1.252 1.303 2.955 0 .802-.5 1.803l-17.13 46.38 39.67-9.817q.8-.2 1.2-.2 1.908 0 3.41 1.503z"/><path fill="#3c3c3c" d="M26.048 160.708h5.785V136.26h-5.785v9.384H20.12v-9.384h-5.785v24.448h5.786v-10.3h5.93zm21.047-20.003h6.56l.566-4.445H34.43v4.445h6.88v20.003h5.785zm21.153 0h6.56l.566-4.445h-19.79v4.445h6.878v20.003h5.786zm28.032 3.528c0-5.362-3.775-7.973-10.443-7.973h-7.69v24.448h5.785v-8.15h2.682c5.75 0 9.666-2.645 9.666-8.325zm-5.927 0c0 2.893-1.552 4.163-4.128 4.163h-2.293v-8.008h2.01c2.93 0 4.41 1.235 4.41 3.845z"/></svg>
